<svg xmlns="http://www.w3.org/2000/svg" width="31.498" height="31.491" viewBox="0 0 31.498 31.491">
  <path id="Icon_awesome-blogger-b" data-name="Icon awesome-blogger-b" d="M31.4,15.659a2.027,2.027,0,0,0-.879-1.3,8.489,8.489,0,0,0-1.758-.19c-1.413-.063-1.568-.091-2.018-.352-.71-.415-.9-.865-.907-2.074a9.074,9.074,0,0,0-2.876-6.42,10.729,10.729,0,0,0-4.605-2.848,24.6,24.6,0,0,0-4.451-.2c-4.88-.056-5.963.042-7.622.7A9.992,9.992,0,0,0,.232,10.048c-.148.619-.183,1.61-.218,7.305-.042,7.137.007,8.184.45,9.6A9.886,9.886,0,0,0,7.8,33.581c1.041.19,13.873.232,15.188.056a9.417,9.417,0,0,0,5.759-2.946,9.626,9.626,0,0,0,2.475-4.366c.345-1.237.316-10.041.176-10.666ZM8.754,11.187c.548-.555.7-.577,4.134-.577,3.087,0,3.192.007,3.642.239a1.548,1.548,0,0,1,.942,1.54,1.662,1.662,0,0,1-.865,1.519c-.323.2-.513.218-3.537.232A34.372,34.372,0,0,1,9.5,14.055a1.791,1.791,0,0,1-.745-2.869ZM22.24,25.235l-1.048.169-5.449.063c-4.788.056-6.138-.028-6.391-.141A1.955,1.955,0,0,1,8.3,23.963a1.985,1.985,0,0,1,.577-1.575c.5-.45.717-.464,6.841-.471,6.3-.007,6.265-.007,6.862.548a1.737,1.737,0,0,1-.345,2.77Z" transform="translate(-0.002 -2.258)" fill="#fff"/>
</svg>
