<svg xmlns="http://www.w3.org/2000/svg" xmlns:xlink="http://www.w3.org/1999/xlink" width="163.2" height="20.42" viewBox="0 0 163.2 20.42">
  <defs>
    <radialGradient id="radial-gradient" cx="0.428" cy="0.5" r="0.69" gradientTransform="translate(0 -0.176) scale(1 1.352)" gradientUnits="objectBoundingBox">
      <stop offset="0" stop-color="#87f5f5"/>
      <stop offset="1" stop-color="#548bed"/>
      <stop offset="1" stop-color="#447b7b"/>
    </radialGradient>
  </defs>
  <path id="Caminho_9" data-name="Caminho 9" d="M10.9,0h1.92L7.8-13.86H5.7L.66,0H2.58L3.7-3.1H9.78ZM9.26-4.58H4.22l2.52-7.04ZM23.04,0h1.8V-6.46c0-3.14-1.94-4.7-4.48-4.7A4.049,4.049,0,0,0,16.84-9.4v-1.56H15.02V0h1.82V-6.06c0-2.36,1.28-3.52,3.14-3.52,1.84,0,3.06,1.14,3.06,3.38Zm4.78,0h1.82V-10.96H27.82Zm.94-12.74a1.213,1.213,0,0,0,1.2-1.24,1.213,1.213,0,0,0-1.2-1.24,1.221,1.221,0,0,0-1.24,1.24A1.221,1.221,0,0,0,28.76-12.74ZM48.56,0h1.8V-6.46c0-3.14-1.94-4.7-4.44-4.7a4.057,4.057,0,0,0-3.88,2.44,4.124,4.124,0,0,0-4.02-2.44,3.962,3.962,0,0,0-3.46,1.78v-1.58H32.74V0h1.82V-6.04c0-2.36,1.26-3.54,3.1-3.54,1.8,0,3,1.14,3,3.38V0h1.8V-6.04c0-2.36,1.26-3.54,3.1-3.54,1.8,0,3,1.14,3,3.38ZM58-9.6a3.216,3.216,0,0,1,3.46,3.32H54.54A3.394,3.394,0,0,1,58-9.6Zm5.12,6.22H61.16a3.012,3.012,0,0,1-3.08,2.02A3.445,3.445,0,0,1,54.52-4.8h8.76a9.866,9.866,0,0,0,.06-1.1,5.024,5.024,0,0,0-5.26-5.24c-3.2,0-5.42,2.18-5.42,5.64,0,3.48,2.3,5.68,5.42,5.68A4.928,4.928,0,0,0,63.12-3.38Zm1.94-3.6A6.839,6.839,0,0,0,72.02.12a6.556,6.556,0,0,0,6.46-4.18H76.3a4.4,4.4,0,0,1-4.28,2.6c-2.92,0-5.1-2.12-5.1-5.52,0-3.42,2.18-5.54,5.1-5.54A4.386,4.386,0,0,1,76.3-9.9h2.18a6.562,6.562,0,0,0-6.46-4.22A6.873,6.873,0,0,0,65.06-6.98ZM91.58-5.5a5.35,5.35,0,0,0-5.54-5.64A5.361,5.361,0,0,0,80.5-5.5,5.321,5.321,0,0,0,85.96.18,5.434,5.434,0,0,0,91.58-5.5Zm-9.22,0c0-2.76,1.74-4.06,3.66-4.06,1.88,0,3.7,1.3,3.7,4.06a3.721,3.721,0,0,1-3.76,4.08C84.06-1.42,82.36-2.72,82.36-5.5ZM109.8,0h1.8V-6.46c0-3.14-1.94-4.7-4.44-4.7a4.057,4.057,0,0,0-3.88,2.44,4.124,4.124,0,0,0-4.02-2.44A3.962,3.962,0,0,0,95.8-9.38v-1.58H93.98V0H95.8V-6.04c0-2.36,1.26-3.54,3.1-3.54,1.8,0,3,1.14,3,3.38V0h1.8V-6.04c0-2.36,1.26-3.54,3.1-3.54,1.8,0,3,1.14,3,3.38Zm6.6-8.94v-2.02h-1.82V5.2h1.82V-2.02a4.741,4.741,0,0,0,4.1,2.2c2.94,0,5.2-2.3,5.2-5.7,0-3.42-2.26-5.62-5.2-5.62A4.63,4.63,0,0,0,116.4-8.94Zm7.44,3.42a3.757,3.757,0,0,1-3.72,4.1A3.761,3.761,0,0,1,116.4-5.5a3.767,3.767,0,0,1,3.72-4.06A3.7,3.7,0,0,1,123.84-5.52Zm3.58,0c0,3.4,2.26,5.7,5.18,5.7a4.577,4.577,0,0,0,4.1-2.22V0h1.84V-10.96H136.7v2a4.548,4.548,0,0,0-4.08-2.18C129.68-11.14,127.42-8.94,127.42-5.52Zm9.28.02a3.75,3.75,0,0,1-3.72,4.08c-2,0-3.7-1.52-3.7-4.1a3.7,3.7,0,0,1,3.7-4.04A3.755,3.755,0,0,1,136.7-5.5ZM149.64,0h1.8V-6.46c0-3.14-1.94-4.7-4.48-4.7a4.049,4.049,0,0,0-3.52,1.76v-1.56h-1.82V0h1.82V-6.06c0-2.36,1.28-3.52,3.14-3.52,1.84,0,3.06,1.14,3.06,3.38Zm8.94-2.08-3.44-8.88h-2.02L157.54-.12l-2.16,5.28h1.88l6.6-16.12h-1.88Z" transform="translate(-0.66 15.22)" fill="url(#radial-gradient)"/>
</svg>
